<svg width="1439" height="1343" viewBox="0 0 1439 1343" fill="none" xmlns="http://www.w3.org/2000/svg">
<path opacity="0.03" d="M1156.71 812.687L888.187 151.518L605.895 812.687H1156.71ZM833.105 96.4205C819.335 89.5333 798.679 89.5333 784.909 82.6462C750.483 75.759 709.172 68.8718 667.861 68.8718C619.665 75.759 564.584 82.6462 516.388 96.4205C461.306 110.195 419.995 130.856 371.799 151.518C323.603 179.067 282.292 213.503 247.866 247.938C213.44 282.374 179.014 323.697 151.474 371.908C130.818 420.118 110.163 461.441 96.3923 516.538C82.622 564.749 75.7368 619.846 75.7368 674.944C75.7368 730.041 82.622 785.138 96.3923 833.349C110.163 881.559 130.818 929.769 158.359 977.979C185.9 1026.19 213.44 1060.63 254.751 1101.95C289.177 1136.38 323.603 1163.93 371.799 1191.48L833.105 96.4205ZM674.746 1343C612.78 1343 557.699 1336.11 495.732 1322.34C440.651 1308.56 385.569 1287.9 337.373 1253.47C289.177 1225.92 240.981 1184.59 199.67 1150.16C158.359 1108.84 123.933 1060.63 96.3923 1012.42C68.8517 964.205 41.311 909.108 27.5407 854.01C6.88517 792.026 0 736.928 0 674.944C0 612.959 6.88517 550.974 20.6555 495.877C34.4258 440.779 55.0813 385.682 89.5072 337.472C117.048 289.262 158.359 241.051 192.785 199.728C234.096 158.405 282.292 123.969 330.488 96.4205C378.684 68.8718 433.766 41.3231 488.847 27.5487C550.813 6.88718 612.78 0 674.746 0C716.057 0 757.368 6.88718 798.68 13.7744C839.99 20.6615 881.301 34.4359 922.612 48.2103L1439 1322.34H1363.26L1184.25 881.559H571.469L426.88 1219.03C454.421 1232.81 481.962 1239.69 516.388 1253.47C564.584 1267.24 619.665 1274.13 674.746 1274.13C750.483 1274.13 826.22 1260.35 895.072 1232.81C963.923 1205.26 1025.89 1163.93 1087.86 1108.84L1142.94 1157.05C1074.09 1219.03 1005.23 1267.24 922.612 1301.68C839.99 1329.23 757.368 1343 674.746 1343Z" fill="#2B2A29"/>
</svg>
