<svg width="500" height="789" viewBox="0 0 500 789" fill="none" xmlns="http://www.w3.org/2000/svg">
<rect width="500" height="789" fill="#1C1A1A"/>
<path opacity="0.1" d="M500 92C483.136 94.6937 466.273 98.3976 450.084 102.775C406.913 114.223 366.102 131.732 327.316 154.629C288.53 177.862 253.453 204.8 222.761 235.777C191.395 266.755 164.413 301.773 141.478 340.496C118.206 379.218 100.668 419.96 89.2009 462.723C77.7336 505.486 72 550.606 72 597.409C72 644.886 77.7336 690.006 89.2009 733.105C94.26 751.961 100.668 770.817 107.751 789H292.914H386.339C402.191 789 415.682 789 427.823 788.663L499.621 626.03C500.295 507.506 499.663 286.958 500 92Z" fill="white"/>
</svg>
