<svg width="749" height="700" viewBox="0 0 749 700" fill="none" xmlns="http://www.w3.org/2000/svg">
<path opacity="0.05" d="M586.569 431.764L432.062 51.2103L269.632 431.764H586.569ZM400.368 19.4974C392.445 15.5333 380.56 15.5333 372.636 11.5692C352.828 7.60513 329.057 3.64103 305.287 3.64103C277.555 7.60513 245.861 11.5692 218.129 19.4974C186.435 27.4256 162.665 39.3179 134.933 51.2103C107.201 67.0667 83.4306 86.8872 63.622 106.708C43.8134 126.528 24.0048 150.313 8.1579 178.062C-3.72727 205.81 -15.6124 229.595 -23.5359 261.308C-31.4593 289.056 -35.4211 320.769 -35.4211 352.482C-35.4211 384.195 -31.4593 415.908 -23.5359 443.656C-15.6124 471.405 -3.72727 499.154 12.1196 526.903C27.9665 554.651 43.8134 574.472 67.5837 598.256C87.3923 618.077 107.201 633.933 134.933 649.79L400.368 19.4974ZM309.249 737C273.593 737 241.9 733.036 206.244 725.108C174.55 717.18 142.856 705.287 115.124 685.467C87.3923 669.61 59.6603 645.826 35.89 626.005C12.1196 602.221 -7.689 574.472 -23.5359 546.723C-39.3828 518.974 -55.2297 487.262 -63.1531 455.549C-75.0383 419.872 -79 388.159 -79 352.482C-79 316.805 -75.0383 281.128 -67.1148 249.415C-59.1914 217.703 -47.3062 185.99 -27.4976 158.241C-11.6507 130.492 12.1196 102.744 31.9282 78.959C55.6986 55.1744 83.4306 35.3538 111.163 19.4974C138.895 3.64103 170.589 -12.2154 202.282 -20.1436C237.938 -32.0359 273.593 -36 309.249 -36C333.019 -36 356.789 -32.0359 380.56 -28.0718C404.33 -24.1077 428.1 -16.1795 451.871 -8.25128L749 725.108H705.421L602.416 471.405H249.823L166.627 665.646C182.474 673.574 198.321 677.539 218.129 685.467C245.861 693.395 277.555 697.359 309.249 697.359C352.828 697.359 396.407 689.431 436.024 673.574C475.641 657.718 511.297 633.933 546.952 602.221L578.646 629.969C539.029 665.646 499.411 693.395 451.871 713.215C404.33 729.072 356.789 737 309.249 737Z" fill="#FEFEFE"/>
</svg>
