<svg width="38" height="34" viewBox="0 0 38 34" fill="none" xmlns="http://www.w3.org/2000/svg">
<g clip-path="url(#clip0_269_5519)">
<path d="M28.595 19.3534L22.1437 3.66113L15.3438 19.3534H28.595Z" fill="#D9DADA"/>
<path d="M19.1795 3.48719C18.8308 3.31283 18.3077 3.31283 17.959 3.13847C17.0872 3.13847 16.041 2.96411 15.1692 2.96411C13.7744 2.96411 12.3795 3.13847 11.159 3.48719C9.93846 3.83591 8.71795 4.35898 7.49744 5.05642C6.45128 5.75385 5.40513 6.45129 4.35897 7.49745C3.48718 8.36924 2.78974 9.41539 2.09231 10.4615C1.39487 11.6821 0.871795 12.9026 0.523077 14.1231C0.174359 15.3436 0 16.7385 0 18.1333C0 19.5282 0.174359 20.9231 0.523077 22.1436C0.871795 23.3641 1.39487 24.5846 2.09231 25.8051C2.78974 26.8513 3.48718 27.8974 4.35897 28.7692C5.23077 29.641 6.10256 30.3385 7.32308 31.0359L19.1795 3.48719Z" fill="#D7B56D"/>
<path d="M30.5125 20.5744L23.7125 3.8359L16.5638 20.5744H30.5125ZM22.492 2.44103C22.1432 2.26667 21.6202 2.26667 21.2715 2.09231C20.3997 1.91795 19.3535 1.74359 18.3074 1.74359C16.9125 1.91795 15.692 2.09231 14.2971 2.44103C13.0766 2.78974 11.8561 3.31282 10.8099 3.8359C9.5894 4.53333 8.54325 5.40513 7.67145 6.27692C6.79966 7.14872 5.92787 8.19487 5.23043 9.41539C4.53299 10.6359 4.00992 11.6821 3.6612 13.0769C3.31248 14.2974 3.13812 15.6923 3.13812 17.0872C3.13812 18.4821 3.31248 19.8769 3.6612 21.0974C4.00992 22.3179 4.53299 23.5385 5.23043 24.759C5.92787 25.9795 6.6253 26.8513 7.67145 27.8974C8.54325 28.7692 9.41504 29.4667 10.6356 30.1641L22.492 2.44103ZM18.3074 34C16.7381 34 15.3433 33.8256 13.774 33.4769C12.3791 33.1282 10.9843 32.6051 9.76376 31.7333C8.54325 31.0359 7.32274 29.9897 6.27658 29.118C5.23043 28.0718 4.35863 26.8513 3.6612 25.6308C2.96376 24.4103 2.26633 23.0154 1.91761 21.6205C1.56889 20.2256 1.39453 18.6564 1.39453 17.0872C1.39453 15.5179 1.56889 14.1231 1.91761 12.5538C2.26633 11.159 2.7894 9.7641 3.6612 8.54359C4.35863 7.32308 5.40479 6.10256 6.27658 5.05641C7.32274 4.01026 8.54325 3.13846 9.76376 2.44103C10.9843 1.74359 12.3791 1.04615 13.774 0.697436C15.3433 0.174359 16.7381 0 18.3074 0C19.3535 0 20.3997 0.174359 21.4458 0.348718C22.492 0.523077 23.5381 0.871795 24.5843 1.22051L37.6612 33.4769H35.7433L31.2099 22.3179H15.8663L12.2048 30.8615C12.9022 31.2103 13.5997 31.3846 14.4715 31.7333C15.692 32.0821 17.0868 32.2564 18.4817 32.2564C20.3997 32.2564 22.3176 31.9077 24.0612 31.2103C25.8048 30.5128 27.374 29.4667 28.9433 28.0718L30.3381 29.2923C28.5945 30.8615 26.8509 32.0821 24.7586 32.9538C22.6663 33.6513 20.574 34 18.3074 34Z" fill="#FEFEFE"/>
</g>
<defs>
<clipPath id="clip0_269_5519">
<rect width="37.8359" height="34" fill="white"/>
</clipPath>
</defs>
</svg>
