<svg width="500" height="675" viewBox="0 0 500 675" fill="none" xmlns="http://www.w3.org/2000/svg">
<rect width="500" height="675" fill="#1C1A1A"/>
<path opacity="0.1" d="M500 0C483.688 2.6087 467.376 6.19565 451.716 10.4348C409.957 21.5217 370.482 38.4783 332.965 60.6522C295.447 83.1522 261.518 109.239 231.83 139.239C201.489 169.239 175.39 203.152 153.206 240.652C130.695 278.152 113.73 317.609 102.638 359.022C91.5461 400.435 86 444.13 86 489.457C86 535.435 91.5461 579.13 102.638 620.87C107.532 639.13 113.73 657.391 120.582 675H299.688H390.057C405.39 675 418.44 675 430.184 674.674L499.633 517.174C500.285 402.391 499.674 188.804 500 0Z" fill="white"/>
</svg>
