<svg width="481" height="480" viewBox="0 0 481 480" fill="none" xmlns="http://www.w3.org/2000/svg">
<rect width="480" height="480" fill="#141414"/>
<g opacity="0.1">
<path d="M480.261 0C468.667 1.85507 457.072 4.4058 445.942 7.42029C416.261 15.3043 388.203 27.3623 361.536 43.1304C334.87 59.1304 310.754 77.6812 289.652 99.0145C268.087 120.348 249.536 144.464 233.768 171.13C217.768 197.797 205.71 225.855 197.826 255.304C189.942 284.754 186 315.826 186 348.058C186 380.754 189.942 411.826 197.826 441.507C201.304 454.493 205.71 467.478 210.58 480H337.884H402.116C413.014 480 422.29 480 430.638 479.768L480 367.768C480.464 286.145 480.029 134.261 480.261 0Z" fill="white"/>
</g>
</svg>
