<svg width="55" height="55" viewBox="0 0 55 55" fill="none" xmlns="http://www.w3.org/2000/svg">
<rect width="55" height="55" fill="#D7B56D"/>
<path d="M20.0898 37.2516H17.8209L23.0572 32.022L21.7466 30.7021L16.5226 35.9194V33.6764H14.668V39.1105H20.0898V37.2516Z" fill="white"/>
<path d="M33.6921 37.2516V39.1105H39.1139V33.6764H37.2592V35.9194L32.0352 30.7021L30.7246 32.022L35.9609 37.2516H33.6921Z" fill="white"/>
<path d="M16.5226 17.8571L21.7466 23.0744L23.0572 21.7546L17.8209 16.5249H20.0898V14.666H14.668V20.1002H16.5226V17.8571Z" fill="white"/>
<path d="M32.0352 23.0682L37.2592 17.8509V20.094H39.1139V14.666H33.6921V16.5249H35.9609L30.7246 21.7546L32.0352 23.0682Z" fill="white"/>
</svg>
