<svg width="20" height="21" viewBox="0 0 20 21" fill="none" xmlns="http://www.w3.org/2000/svg">
<path d="M18.0945 8.73479C17.7016 8.73479 17.3399 8.8542 17.0362 9.05324C16.7772 8.31903 16.0673 7.79271 15.2367 7.79271C14.8438 7.79271 14.4821 7.91212 14.1784 8.11115C13.9195 7.37695 13.2095 6.85062 12.3789 6.85062C12.0306 6.85062 11.7047 6.94351 11.4278 7.10273V4.01554C11.4278 2.97615 10.575 2.12695 9.52115 2.12695C8.46734 2.12695 7.61447 2.97173 7.61447 4.01554V12.0343L5.95785 10.8047C4.97549 10.0749 3.58232 10.1722 2.71159 11.0347C2.15343 11.5876 2.15343 12.4854 2.71159 13.0339L9.49436 19.7523C10.3026 20.5528 11.3832 20.9951 12.5263 20.9951H14.7589C17.648 20.9951 19.9967 18.6686 19.9967 15.807V10.6189C20.0012 9.57956 19.1438 8.73479 18.0945 8.73479ZM19.0456 15.8114C19.0456 18.1512 17.1211 20.0574 14.7589 20.0574H12.5263C11.6332 20.0574 10.7982 19.7125 10.1686 19.0888L3.38585 12.3704C3.19831 12.1847 3.19831 11.8883 3.38585 11.7026C3.68056 11.4106 4.0735 11.2603 4.47091 11.2603C4.79241 11.2603 5.11838 11.3576 5.3863 11.561L7.80202 13.3567C7.9449 13.4629 8.14138 13.4806 8.30213 13.401C8.46288 13.3213 8.56558 13.1577 8.56558 12.9808V4.01554C8.56558 3.49363 8.99425 3.07346 9.51669 3.07346C10.0391 3.07346 10.4678 3.49806 10.4678 4.01554V11.0922C10.4678 11.3532 10.6821 11.5655 10.9456 11.5655C11.209 11.5655 11.4234 11.3532 11.4234 11.0922V8.73479C11.4234 8.21288 11.852 7.79271 12.3745 7.79271C12.8969 7.79271 13.3256 8.2173 13.3256 8.73479V11.0922C13.3256 11.3532 13.5399 11.5655 13.8034 11.5655C14.0668 11.5655 14.2811 11.3532 14.2811 11.0922V9.67687C14.2811 9.15496 14.7098 8.73479 15.2323 8.73479C15.7547 8.73479 16.1834 9.15939 16.1834 9.67687V11.0922C16.1834 11.3532 16.3977 11.5655 16.6611 11.5655C16.9246 11.5655 17.1389 11.3532 17.1389 11.0922V10.6189C17.1389 10.097 17.5676 9.67687 18.09 9.67687C18.6125 9.67687 19.0411 10.1015 19.0411 10.6189L19.0456 15.8114Z" fill="#282828"/>
<path d="M17.3934 3.31719L19.0322 1.65859L17.3934 0L17.1657 0.229992L18.416 1.49495H12.3789V1.82224H18.416L17.1657 3.08719L17.3934 3.31719Z" fill="#F2B644"/>
<path d="M1.63876 0L0 1.65859L1.63876 3.31719L1.86649 3.08719L0.616209 1.82224H6.65327V1.49495H0.616209L1.86649 0.229992L1.63876 0Z" fill="#F2B644"/>
</svg>
